<svg xmlns="http://www.w3.org/2000/svg" width="110.00mm" height="143.36mm" viewBox="0 0 110.00 143.36">
<rect width="110.00" height="143.36" fill="#ffffff"/>
<rect x="11.00" y="22.68" width="96.00" height="94.00" fill="#0b0b0c"/>
<rect x="3.00" y="22.68" width="8.00" height="94.00" fill="#f2f0ec"/>
<g transform="translate(63.08,34.9) scale(0.0264)">
 <g fill="none" stroke="#ffffff" stroke-width="34" stroke-linecap="round" stroke-linejoin="round">
  <circle cx="52" cy="103" r="35"/><path d="M87 68 V138"/>
  <path d="M140 138 V68"/><path d="M140 92 a35 35 0 0 1 35 -24"/>
  <circle cx="235" cy="103" r="35"/>
  <path d="M300 138 V68"/><path d="M300 92 a30 30 0 0 1 60 0 V138"/>
  <path d="M360 92 a30 30 0 0 1 60 0 V138"/>
  <path d="M455 138 V68"/><circle cx="455" cy="26" r="9" fill="#ffffff" stroke="none" stroke-width="0"/>
  <circle cx="530" cy="103" r="35"/>
 </g></g>
<text x="71.00" y="42.54" font-family="Nunito, 'Trebuchet MS', sans-serif" font-size="1.30" font-weight="700" fill="#ffffff" text-anchor="middle" letter-spacing="0.80" opacity="0.7">PARFUM'S</text>
<rect x="63.56" y="73.44" width="14.88" height="8.93" rx="4.46" fill="#ffffff"/>
<text x="71.00" y="79.69" font-family="Nunito, 'Trebuchet MS', sans-serif" font-size="3.15" font-weight="900" fill="#0b0b0c" text-anchor="middle" letter-spacing="0.00" opacity="1">10 мл</text>
<text x="71.00" y="97.88" font-family="Nunito, 'Trebuchet MS', sans-serif" font-size="1.99" font-weight="800" fill="#ffffff" text-anchor="middle" letter-spacing="0.90" opacity="1">ДЕКАНТ</text>
<text x="71.00" y="102.11" font-family="Nunito, 'Trebuchet MS', sans-serif" font-size="1.30" font-weight="600" fill="#ffffff" text-anchor="middle" letter-spacing="0.00" opacity="0.62">розлив из оригинального</text>
<text x="71.00" y="104.00" font-family="Nunito, 'Trebuchet MS', sans-serif" font-size="1.30" font-weight="600" fill="#ffffff" text-anchor="middle" letter-spacing="0.00" opacity="0.62">флакона</text>
<text x="14.12" y="33.02" font-family="Nunito, 'Trebuchet MS', sans-serif" font-size="1.51" font-weight="800" fill="#ffffff" text-anchor="start" letter-spacing="0.50" opacity="0.6">АРОМАТ</text>
<line x1="14.12" y1="36.17" x2="31.88" y2="36.17" stroke="#ffffff" stroke-width="0.2" opacity=".35"/>
<text x="14.12" y="40.16" font-family="Nunito, 'Trebuchet MS', sans-serif" font-size="1.51" font-weight="800" fill="#ffffff" text-anchor="start" letter-spacing="0.50" opacity="0.6">ДОМ</text>
<line x1="14.12" y1="43.31" x2="31.88" y2="43.31" stroke="#ffffff" stroke-width="0.2" opacity=".35"/>
<text x="14.12" y="47.30" font-family="Nunito, 'Trebuchet MS', sans-serif" font-size="1.51" font-weight="800" fill="#ffffff" text-anchor="start" letter-spacing="0.50" opacity="0.6">ПШИКОВ НА РАЗ</text>
<line x1="14.12" y1="50.45" x2="31.88" y2="50.45" stroke="#ffffff" stroke-width="0.2" opacity=".35"/>
<text x="14.12" y="54.44" font-family="Nunito, 'Trebuchet MS', sans-serif" font-size="1.51" font-weight="800" fill="#ffffff" text-anchor="start" letter-spacing="0.50" opacity="0.6">РОЗЛИВ</text>
<line x1="14.12" y1="57.59" x2="31.88" y2="57.59" stroke="#ffffff" stroke-width="0.2" opacity=".35"/>
<text x="14.12" y="62.84" font-family="Nunito, 'Trebuchet MS', sans-serif" font-size="1.39" font-weight="600" fill="#ffffff" text-anchor="start" letter-spacing="0.00" opacity="0.8">Спиртосодержащая</text>
<text x="14.12" y="64.92" font-family="Nunito, 'Trebuchet MS', sans-serif" font-size="1.39" font-weight="600" fill="#ffffff" text-anchor="start" letter-spacing="0.00" opacity="0.8">жидкость. Беречь от</text>
<text x="14.12" y="67.00" font-family="Nunito, 'Trebuchet MS', sans-serif" font-size="1.39" font-weight="600" fill="#ffffff" text-anchor="start" letter-spacing="0.00" opacity="0.8">огня, солнца и детей.</text>
<text x="14.12" y="69.08" font-family="Nunito, 'Trebuchet MS', sans-serif" font-size="1.39" font-weight="600" fill="#ffffff" text-anchor="start" letter-spacing="0.00" opacity="0.8">Хранить при 5–25 °C. Не</text>
<text x="14.12" y="71.16" font-family="Nunito, 'Trebuchet MS', sans-serif" font-size="1.39" font-weight="600" fill="#ffffff" text-anchor="start" letter-spacing="0.00" opacity="0.8">для приёма внутрь.</text>
<text x="14.12" y="74.48" font-family="Nunito, 'Trebuchet MS', sans-serif" font-size="1.39" font-weight="600" fill="#ffffff" text-anchor="start" letter-spacing="0.00" opacity="0.8">Аромат разлит из</text>
<text x="14.12" y="76.56" font-family="Nunito, 'Trebuchet MS', sans-serif" font-size="1.39" font-weight="600" fill="#ffffff" text-anchor="start" letter-spacing="0.00" opacity="0.8">оригинального флакона.</text>
<text x="14.12" y="78.64" font-family="Nunito, 'Trebuchet MS', sans-serif" font-size="1.39" font-weight="600" fill="#ffffff" text-anchor="start" letter-spacing="0.00" opacity="0.8">Упаковка и розлив —</text>
<text x="14.12" y="80.72" font-family="Nunito, 'Trebuchet MS', sans-serif" font-size="1.39" font-weight="600" fill="#ffffff" text-anchor="start" letter-spacing="0.00" opacity="0.8">AROMIO.</text>
<rect x="14.12" y="102.56" width="17.76" height="11.00" fill="none" stroke="#ffffff" stroke-width="0.2" stroke-dasharray="0.8 0.8" opacity=".5"/>
<text x="23.00" y="108.46" font-family="Nunito, 'Trebuchet MS', sans-serif" font-size="1.26" font-weight="600" fill="#ffffff" text-anchor="middle" letter-spacing="0.00" opacity="0.55">штрихкод</text>
<g transform="rotate(90 47.00 69.68)">
<text x="3.12" y="70.25" font-family="Nunito, 'Trebuchet MS', sans-serif" font-size="1.64" font-weight="800" fill="#ffffff" text-anchor="start" letter-spacing="0.30" opacity="1">AROMIO · 10 мл · ДЕКАНТ</text>
</g>
<g transform="rotate(90 95.00 69.68)">
<text x="51.12" y="70.25" font-family="Nunito, 'Trebuchet MS', sans-serif" font-size="1.64" font-weight="800" fill="#ffffff" text-anchor="start" letter-spacing="0.30" opacity="1">AROMIO · 10 мл · ДЕКАНТ</text>
</g>
<path d="M11.00,22.68 L107.00,22.68 L107.00,116.68 L11.00,116.68 L3.00,115.08 L3.00,24.28 Z" fill="none" stroke="#111318" stroke-width="0.25"/>
<path d="M11.00,22.68 L11.00,4.60 Q11.00,3.00 12.60,3.00 L33.40,3.00 Q35.00,3.00 35.00,4.60 L35.00,22.68" fill="none" stroke="#111318" stroke-width="0.25"/>
<path d="M11.00,116.68 L11.00,134.76 Q11.00,136.36 12.60,136.36 L33.40,136.36 Q35.00,136.36 35.00,134.76 L35.00,116.68" fill="none" stroke="#111318" stroke-width="0.25"/>
<path d="M59.00,22.68 L59.00,4.60 Q59.00,3.00 60.60,3.00 L81.40,3.00 Q83.00,3.00 83.00,4.60 L83.00,22.68" fill="none" stroke="#111318" stroke-width="0.25"/>
<path d="M59.00,116.68 L59.00,134.76 Q59.00,136.36 60.60,136.36 L81.40,136.36 Q83.00,136.36 83.00,134.76 L83.00,116.68" fill="none" stroke="#111318" stroke-width="0.25"/>
<path d="M35.20,22.68 L35.90,10.87 L58.10,10.87 L58.80,22.68" fill="none" stroke="#111318" stroke-width="0.25"/>
<path d="M35.20,116.68 L35.90,128.49 L58.10,128.49 L58.80,116.68" fill="none" stroke="#111318" stroke-width="0.25"/>
<path d="M83.20,22.68 L83.90,10.87 L106.10,10.87 L106.80,22.68" fill="none" stroke="#111318" stroke-width="0.25"/>
<path d="M83.20,116.68 L83.90,128.49 L106.10,128.49 L106.80,116.68" fill="none" stroke="#111318" stroke-width="0.25"/>
<line x1="11.00" y1="22.68" x2="107.00" y2="22.68" stroke="#111318" stroke-width="0.18" stroke-dasharray="1.4 1.1"/>
<line x1="11.00" y1="116.68" x2="107.00" y2="116.68" stroke="#111318" stroke-width="0.18" stroke-dasharray="1.4 1.1"/>
<line x1="11.00" y1="22.68" x2="11.00" y2="116.68" stroke="#111318" stroke-width="0.18" stroke-dasharray="1.4 1.1"/>
<line x1="35.00" y1="22.68" x2="35.00" y2="116.68" stroke="#111318" stroke-width="0.18" stroke-dasharray="1.4 1.1"/>
<line x1="59.00" y1="22.68" x2="59.00" y2="116.68" stroke="#111318" stroke-width="0.18" stroke-dasharray="1.4 1.1"/>
<line x1="83.00" y1="22.68" x2="83.00" y2="116.68" stroke="#111318" stroke-width="0.18" stroke-dasharray="1.4 1.1"/>
<text x="3.00" y="141.96" font-family="monospace" font-size="1.70" fill="#111318">AROMIO · декант 10 мл · 24×24×94 мм · спрей-атомайзер, Ø19 × 88 мм · вылет 3 мм · 1:1</text>
</svg>